PERFORMER Kisiel & Me?How?
TITLE Po drugiej stronie srebra
FILE Kisiel-&-Me_How_-Po-drugiej-stronie-srebra-MASTER.bin BINARY
  TRACK 01 AUDIO
    TITLE "Schody (intro)"
    PERFORMER Kisiel & Me?How?
    INDEX 01 00:00:00
  TRACK 02 AUDIO
    TITLE "Schody"
    PERFORMER Kisiel & Me?How?
    INDEX 01 01:01:06
  TRACK 03 AUDIO
    TITLE "Triumf (intro)"
    PERFORMER Kisiel & Me?How?
    INDEX 01 03:36:81
  TRACK 04 AUDIO
    TITLE "Triumf"
    PERFORMER Kisiel & Me?How?
    INDEX 01 03:57:12
  TRACK 05 AUDIO
    TITLE "Sen"
    PERFORMER Kisiel & Me?How?
    INDEX 01 06:24:35
  TRACK 06 AUDIO
    TITLE "Na tropie zbrodni (intro)"
    PERFORMER Kisiel & Me?How?
    INDEX 01 07:55:07
  TRACK 07 AUDIO
    TITLE "Na tropie zbrodni"
    PERFORMER Kisiel & Me?How?
    INDEX 01 08:27:29
  TRACK 08 AUDIO
    TITLE "Lustrzana teoria (intro)"
    PERFORMER Kisiel & Me?How?
    INDEX 01 11:11:34
  TRACK 09 AUDIO
    TITLE "Lustrzana teoria"
    PERFORMER Kisiel & Me?How?
    INDEX 01 12:05:93
  TRACK 10 AUDIO
    TITLE "Pocz¹tek koñca (intro)"
    PERFORMER Kisiel & Me?How?
    INDEX 01 14:22:66
  TRACK 11 AUDIO
    TITLE "Pocz¹tek koñca"
    PERFORMER Kisiel & Me?How?
    INDEX 01 14:57:26
  TRACK 12 AUDIO
    TITLE "Outro"
    PERFORMER Kisiel & Me?How?
    INDEX 01 17:39:51
